<svg xmlns="http://www.w3.org/2000/svg" width="370" height="348.001" viewBox="0 0 370 348.001">
  <g id="Group_8484" data-name="Group 8484" transform="translate(-242 -137)">
    <path id="Subtraction_1" data-name="Subtraction 1" d="M331,427H317a8,8,0,1,0-16,0H287a8,8,0,1,0-16,0H257a8,8,0,1,0-16,0H227a8,8,0,1,0-16,0H197a8,8,0,1,0-16,0H167a8,8,0,1,0-16,0H137a8,8,0,1,0-16,0H107a8,8,0,1,0-16,0H77a8,8,0,1,0-16,0H47a8,8,0,1,0-16,0H12A12,12,0,0,1,0,415V91A12,12,0,0,1,12,79H358a12,12,0,0,1,12,12V415a12,12,0,0,1-12,12H347a8,8,0,1,0-16,0Z" transform="translate(242 58)" fill="#fff"/>
  </g>
</svg>
