<svg xmlns="http://www.w3.org/2000/svg" width="370" height="673.001" viewBox="0 0 370 673.001">
  <g id="Group_8483" data-name="Group 8483" transform="translate(-242 -58)">
    <path id="Subtraction_1" data-name="Subtraction 1" d="M330.253,673h-14.5a8,8,0,1,0-15.5,0h-14.5a8,8,0,1,0-15.5,0h-14.5a8,8,0,1,0-15.5,0h-14.5a8,8,0,1,0-15.5,0h-14.5a8,8,0,1,0-15.5,0h-14.5a8,8,0,1,0-15.5,0h-14.5a8,8,0,1,0-15.5,0h-14.5a8,8,0,1,0-15.5,0h-14.5a8,8,0,1,0-15.5,0h-14.5a8,8,0,1,0-15.5,0H12A12,12,0,0,1,0,661V12A12,12,0,0,1,12,0H358a12,12,0,0,1,12,12V661a11.993,11.993,0,0,1-9,11.622v-5.5a8.028,8.028,0,0,0-.8,5.674,12.094,12.094,0,0,1-2.2.2H345.748a8,8,0,1,0-15.5,0Z" transform="translate(242 58)" fill="#fff"/>
  </g>
</svg>
