<svg xmlns="http://www.w3.org/2000/svg" width="28.196" height="26.607" viewBox="0 0 28.196 26.607">
  <g id="svgexport-10_63_" data-name="svgexport-10 (63)" transform="translate(0 -14.423)">
    <g id="Group_49" data-name="Group 49" transform="translate(0 14.423)">
      <g id="Group_14" data-name="Group 14" transform="translate(21.038 11.776)">
        <path id="Path_33" data-name="Path 33" d="M382.021,228.265h7.158v2.487a1.119,1.119,0,0,1-1.116,1.117h-2.575l-1.536.776-1.931-.776v-3.6Z" transform="translate(-382.021 -228.265)" fill="#ffe07d" fill-rule="evenodd"/>
      </g>
      <g id="Group_15" data-name="Group 15" transform="translate(21.038 8.168)">
        <path id="Path_34" data-name="Path 34" d="M383.138,162.742h4.926a1.119,1.119,0,0,1,1.116,1.117v1.848h-7.158v-1.848A1.119,1.119,0,0,1,383.138,162.742Z" transform="translate(-382.022 -162.742)" fill="#ffe07d" fill-rule="evenodd"/>
      </g>
      <g id="Group_16" data-name="Group 16" transform="translate(21.038 10.576)">
        <path id="Path_35" data-name="Path 35" d="M382.022,206.463h7.158v1.756h-7.158Z" transform="translate(-382.022 -206.463)" fill="#ff8086" fill-rule="evenodd"/>
      </g>
      <g id="Group_17" data-name="Group 17" transform="translate(25.586 8.168)">
        <path id="Path_36" data-name="Path 36" d="M465.72,165.149h1.494v-1.291a1.12,1.12,0,0,0-1.116-1.117H464.6a1.119,1.119,0,0,1,1.116,1.117Z" transform="translate(-464.604 -162.741)" fill="#ffc269" fill-rule="evenodd"/>
      </g>
      <g id="Group_18" data-name="Group 18" transform="translate(26.702 10.576)">
        <path id="Path_37" data-name="Path 37" d="M484.871,208.219h1.494v-1.756h-1.494v1.756Z" transform="translate(-484.871 -206.463)" fill="#f76672" fill-rule="evenodd"/>
      </g>
      <g id="Group_19" data-name="Group 19" transform="translate(25.586 12.332)">
        <path id="Path_38" data-name="Path 38" d="M465.721,238.348v1.931A1.119,1.119,0,0,1,464.6,241.4H466.1a1.115,1.115,0,0,0,1.116-1.117v-1.931h-1.494Z" transform="translate(-464.605 -238.348)" fill="#ffc269" fill-rule="evenodd"/>
      </g>
      <g id="Group_20" data-name="Group 20" transform="translate(12.522 15.38)">
        <path id="Path_39" data-name="Path 39" d="M235.893,293.7h3.467v1.595a.7.7,0,0,1-.695.7H227.377c0-1,0-1.513.767-1.513l1.528,0a2.146,2.146,0,0,0,1.944-.776h4.277Z" transform="translate(-227.377 -293.7)" fill="#6f6571" fill-rule="evenodd"/>
      </g>
      <g id="Group_21" data-name="Group 21" transform="translate(7.854 17.67)">
        <path id="Path_40" data-name="Path 40" d="M148.652,335.289h9.927a6.113,6.113,0,0,1,.646,4.563c-.675-2.3-7.536-1.381-8.24,1.271h-7.57c-.286-.649-.556-1.289-.793-1.936h2.134C149.073,337.558,147.686,338.284,148.652,335.289Z" transform="translate(-142.623 -335.289)" fill="#ffe07d" fill-rule="evenodd"/>
      </g>
      <g id="Group_22" data-name="Group 22" transform="translate(13.014 5.56)">
        <path id="Path_41" data-name="Path 41" d="M236.582,121.261a16.2,16.2,0,0,0,.574,2.2l2.182.855,2.433-.855c-.085-4.6-1.806-6.813-3.269-7.527a3.553,3.553,0,0,0-1.068-.553s-.711,1.137-.748,1.137a6.107,6.107,0,0,0-.359,2.414Z" transform="translate(-236.326 -115.381)" fill="#eceaec" fill-rule="evenodd"/>
      </g>
      <g id="Group_23" data-name="Group 23" transform="translate(11.474 13.64)">
        <path id="Path_42" data-name="Path 42" d="M215.343,262.108h-4.615c-1.063.116-2.37.925-2.37,3.433v2.628l1.047.624,1.362-.624v-2.031c0-1,0-1.513.767-1.513l1.528,0a2.146,2.146,0,0,0,1.944-.776A2.848,2.848,0,0,0,215.343,262.108Z" transform="translate(-208.357 -262.108)" fill="#ff8086" fill-rule="evenodd"/>
      </g>
      <g id="Group_24" data-name="Group 24" transform="translate(14.467 6.113)">
        <path id="Path_43" data-name="Path 43" d="M266.7,132.948c-.085-4.6-1.806-6.813-3.269-7.527a2.957,2.957,0,0,1-.724.372c1.3.98,2.6,3.171,2.67,7.156Z" transform="translate(-262.702 -125.421)" fill="#dad8db" fill-rule="evenodd"/>
      </g>
      <g id="Group_25" data-name="Group 25" transform="translate(15.784 13.64)">
        <path id="Path_44" data-name="Path 44" d="M289.295,262.108h-1.323a2.849,2.849,0,0,1-.338,1.74,1.988,1.988,0,0,1-1.015.776h.394a2.146,2.146,0,0,0,1.944-.776A2.849,2.849,0,0,0,289.295,262.108Z" transform="translate(-286.619 -262.108)" fill="#f76672" fill-rule="evenodd"/>
      </g>
      <g id="Group_26" data-name="Group 26" transform="translate(16.217 19.228)">
        <path id="Path_45" data-name="Path 45" d="M294.474,367.855a4.208,4.208,0,0,1,8.24-1.271,4.319,4.319,0,0,1,.185,1.136c0,.155-.1.135-.246.135Q298.564,367.855,294.474,367.855Z" transform="translate(-294.474 -363.579)" fill="#ff8086" fill-rule="evenodd"/>
      </g>
      <g id="Group_27" data-name="Group 27" transform="translate(17.276 23.504)">
        <path id="Path_46" data-name="Path 46" d="M313.718,441.231h6.413a3.208,3.208,0,0,1-6.413,0Z" transform="translate(-313.718 -441.231)" fill="#6f6571" fill-rule="evenodd"/>
      </g>
      <g id="Group_28" data-name="Group 28" transform="translate(0.918 22.82)">
        <path id="Path_47" data-name="Path 47" d="M16.74,428.81l5.518,1.27a2.831,2.831,0,1,1-5.518-1.27Z" transform="translate(-16.667 -428.81)" fill="#6f6571" fill-rule="evenodd"/>
      </g>
      <g id="Group_29" data-name="Group 29" transform="translate(0 19.603)">
        <path id="Path_48" data-name="Path 48" d="M.577,372.064a3.851,3.851,0,0,1,3.549-1.651,3.914,3.914,0,0,1,3.47,3.88,3.846,3.846,0,0,1-.085.761c-.016.071-.063.042-.14.024l-.864-.2L.991,373.61l-.413-.095L0,373.382a3.821,3.821,0,0,1,.577-1.318Z" transform="translate(0 -370.393)" fill="#eceaec" fill-rule="evenodd"/>
      </g>
      <g id="Group_30" data-name="Group 30" transform="translate(4.122 11.454)">
        <path id="Path_49" data-name="Path 49" d="M74.845,230.581l2.229-7.712,1-.449,1.122.449a12.981,12.981,0,0,0-.068,9.665c.238.647.508,1.288.793,1.936h-1.6Z" transform="translate(-74.845 -222.42)" fill="#ff8086" fill-rule="evenodd"/>
      </g>
      <g id="Group_31" data-name="Group 31" transform="translate(10.853 2.699)">
        <path id="Path_50" data-name="Path 50" d="M197.255,63.991l2.615-.557c.265.024,1.024.661,1.024,1.061l-.556,2.829a2.554,2.554,0,0,1-.732.108,2.528,2.528,0,0,1-2.351-3.441Z" transform="translate(-197.085 -63.434)" fill="#ffece4" fill-rule="evenodd"/>
      </g>
      <g id="Group_32" data-name="Group 32" transform="translate(10.18 0)">
        <path id="Path_51" data-name="Path 51" d="M184.849,17.679a3.185,3.185,0,1,1,6.368,0,3.407,3.407,0,0,1-1.357,2.857,3.037,3.037,0,0,1-1.084.476V18.183c0-.4-.2-.48-.468-.5h-3.459Z" transform="translate(-184.849 -14.423)" fill="#ff8086" fill-rule="evenodd"/>
      </g>
      <g id="Group_33" data-name="Group 33" transform="translate(11.698 0)">
        <path id="Path_52" data-name="Path 52" d="M212.416,14.9a3.107,3.107,0,0,1,1.666-.481,3.219,3.219,0,0,1,3.184,3.256,3.407,3.407,0,0,1-1.357,2.857,2.954,2.954,0,0,1-.738.377,3.7,3.7,0,0,0,1-2.631,3.367,3.367,0,0,0-3.329-3.4A3.058,3.058,0,0,0,212.416,14.9Z" transform="translate(-212.416 -14.423)" fill="#f76672" fill-rule="evenodd"/>
      </g>
      <g id="Group_34" data-name="Group 34" transform="translate(9.985 19.701)">
        <path id="Path_53" data-name="Path 53" d="M182.8,372.171h2.409v1.518c0,.325-.177.349-.437.349h-3.458C181.243,372.515,182.164,372.171,182.8,372.171Z" transform="translate(-181.308 -372.171)" fill="#6f6571" fill-rule="evenodd"/>
      </g>
      <g id="Group_35" data-name="Group 35" transform="translate(6.378 11.903)">
        <path id="Path_54" data-name="Path 54" d="M117.844,240.239a12.981,12.981,0,0,1,.068-9.665h-1.134a12.973,12.973,0,0,0-.068,9.665c.236.647.507,1.288.793,1.936h1.134C118.352,241.526,118.082,240.886,117.844,240.239Z" transform="translate(-115.813 -230.574)" fill="#f76672" fill-rule="evenodd"/>
      </g>
      <g id="Group_36" data-name="Group 36" transform="translate(3.07 19.603)">
        <path id="Path_55" data-name="Path 55" d="M60.274,374.295l-3.47-3.88a3.792,3.792,0,0,0-1.057.042l3.335,3.729a3.838,3.838,0,0,1-.066.658l.169.039.864.2c.077.018.124.047.14-.024A3.853,3.853,0,0,0,60.274,374.295Z" transform="translate(-55.747 -370.395)" fill="#dad8db" fill-rule="evenodd"/>
      </g>
      <g id="Group_37" data-name="Group 37" transform="translate(13.883 17.67)">
        <path id="Path_56" data-name="Path 56" d="M262.029,335.289H252.1v.874h8.157a1.209,1.209,0,0,1,1.238.868,4.028,4.028,0,0,1,.33,1.276,4.266,4.266,0,0,1,.849,1.545A6.113,6.113,0,0,0,262.029,335.289Z" transform="translate(-252.102 -335.289)" fill="#ffc269" fill-rule="evenodd"/>
      </g>
      <g id="Group_38" data-name="Group 38" transform="translate(19.505 19.228)">
        <path id="Path_57" data-name="Path 57" d="M358.294,365.039a4.179,4.179,0,0,0-3.178-1.46,4.262,4.262,0,0,0-.925.1,4.248,4.248,0,0,1,3.285,4.04c0,.106-.045.13-.122.135h1.727c.145,0,.251.019.246-.135a4.316,4.316,0,0,0-.185-1.136c0-.011-.006-.021-.01-.031v0A4.268,4.268,0,0,0,358.294,365.039Z" transform="translate(-354.192 -363.579)" fill="#f76672" fill-rule="evenodd"/>
      </g>
      <g id="Group_39" data-name="Group 39" transform="translate(0.918 22.82)">
        <path id="Path_58" data-name="Path 58" d="M22.084,430.041l-5.349-1.231a2.816,2.816,0,0,0-.071.755l4.245.977.167.039a2.814,2.814,0,0,1-1.09,1.654,2.829,2.829,0,0,0,2.266-2.155Z" transform="translate(-16.662 -428.81)" fill="#5d5360" fill-rule="evenodd"/>
      </g>
      <g id="Group_40" data-name="Group 40" transform="translate(17.276 23.504)">
        <path id="Path_59" data-name="Path 59" d="M319.109,441.23h-5.392a3.326,3.326,0,0,0,.2.967h4.778a3.315,3.315,0,0,1-.786,1.98,3.275,3.275,0,0,0,2.224-2.947h-1.021Z" transform="translate(-313.717 -441.23)" fill="#5d5360" fill-rule="evenodd"/>
      </g>
      <g id="Group_41" data-name="Group 41" transform="translate(21.631 15.38)">
        <path id="Path_60" data-name="Path 60" d="M395.671,295.3V293.7h-2.179V295.3a.7.7,0,0,1-.695.7h2.179A.7.7,0,0,0,395.671,295.3Z" transform="translate(-392.797 -293.701)" fill="#5d5360" fill-rule="evenodd"/>
      </g>
      <g id="Group_42" data-name="Group 42" transform="translate(10.866 3.256)">
        <path id="Path_61" data-name="Path 61" d="M197.318,74.19h2.148c.265.024.468.106.468.505v2.287a2.58,2.58,0,0,0,.624-.1V74.049c0-.4-.2-.48-.468-.5h-2.615A2.528,2.528,0,0,0,197.318,74.19Z" transform="translate(-197.318 -73.545)" fill="#ffddce" fill-rule="evenodd"/>
      </g>
      <g id="Group_43" data-name="Group 43" transform="translate(5.278 9.369)">
        <path id="Path_62" data-name="Path 62" d="M96.449,184.654l3.009.995a2.673,2.673,0,0,1-.119,1.434h-3.5v-2.215C95.841,184.432,96.068,184.529,96.449,184.654Z" transform="translate(-95.841 -184.548)" fill="#ffe07d" fill-rule="evenodd"/>
      </g>
      <g id="Group_44" data-name="Group 44" transform="translate(8.168 10.357)">
        <path id="Path_63" data-name="Path 63" d="M150.456,204.035h-1.521c-.817,0-.841-1.355.119-1.434l1.4-.113.376.8Z" transform="translate(-148.327 -202.488)" fill="#ffece4" fill-rule="evenodd"/>
      </g>
      <g id="Group_45" data-name="Group 45" transform="translate(10.297 8.346)">
        <path id="Path_64" data-name="Path 64" d="M189.7,166.739l.5-.433c1.261-1.086,2.854.747,1.169,1.841l-1.418.921-.714.464h-2.259v-1.547l1.4-.114Z" transform="translate(-186.981 -165.974)" fill="#ff8086" fill-rule="evenodd"/>
      </g>
      <g id="Group_46" data-name="Group 46" transform="translate(8.168 11.141)">
        <path id="Path_65" data-name="Path 65" d="M150.449,217.484v-.75h-1.986a.623.623,0,0,1-.137-.013.629.629,0,0,0,.6.763h1.521Z" transform="translate(-148.319 -216.721)" fill="#ffddce" fill-rule="evenodd"/>
      </g>
      <g id="Group_47" data-name="Group 47" transform="translate(10.297 8.532)">
        <path id="Path_66" data-name="Path 66" d="M191.373,171.335c1.02-.663.839-1.595.259-1.988a1.319,1.319,0,0,1-.724,1.239l-1.1.716-.312.2-.714.462h-1.8v.75h2.259l.714-.464Z" transform="translate(-186.981 -169.347)" fill="#f76672" fill-rule="evenodd"/>
      </g>
      <g id="Group_48" data-name="Group 48" transform="translate(7.225 10.07)">
        <path id="Path_67" data-name="Path 67" d="M132.864,197.685l-1.211-.4a1.841,1.841,0,0,0-.341,1.833h1.433a.629.629,0,0,1-.6-.763A.755.755,0,0,1,132.864,197.685Z" transform="translate(-131.194 -197.286)" fill="#ffc269" fill-rule="evenodd"/>
      </g>
    </g>
  </g>
</svg>
