<svg id="svgexport-10_61_" data-name="svgexport-10 (61)" xmlns="http://www.w3.org/2000/svg" width="28.149" height="29.341" viewBox="0 0 28.149 29.341">
  <path id="Path_15" data-name="Path 15" d="M240,24h2.038v3.057H240Z" transform="translate(-226.945 -23.49)" fill="#c2c5c6"/>
  <path id="Path_16" data-name="Path 16" d="M220.586,17.019H216.51a.51.51,0,1,1,0-1.019h4.076a.51.51,0,1,1,0,1.019Z" transform="translate(-204.473 -16)" fill="#d9dbdd"/>
  <path id="Path_17" data-name="Path 17" d="M82.023,56H85.03A10.108,10.108,0,0,1,95.054,66.191v1.529H72V66.191A10.108,10.108,0,0,1,82.023,56Z" transform="translate(-69.452 -53.452)" fill="#d9dbdd"/>
  <path id="Path_18" data-name="Path 18" d="M264,456h6.114v2.038H264Z" transform="translate(-249.477 -428.697)" fill="#e74444"/>
  <path id="Path_19" data-name="Path 19" d="M32,232H60.149v1.019a1.012,1.012,0,0,1-1.005,1.019H33.005A1.012,1.012,0,0,1,32,233.019Z" transform="translate(-32 -218.597)" fill="#c2c5c6"/>
  <path id="Path_20" data-name="Path 20" d="M99.766,265.529l-.423-.931a1.019,1.019,0,0,0-.928-.6h-.291a1.019,1.019,0,0,0-.689,1.77l4.183,3.835v-4.076Z" transform="translate(-92.957 -248.67)" fill="#deb89a"/>
  <path id="Path_21" data-name="Path 21" d="M150.551,276.229V274.7l.422-.422a2.038,2.038,0,0,0,.6-1.441V269.6l1.893-4.164a1.019,1.019,0,0,0-.928-1.441h-.87a1.019,1.019,0,0,0-.895.531L148,269.6l-2.038.51-5.1-2.038-1.756-3.513A1.019,1.019,0,0,0,138.2,264h-.335a1.019,1.019,0,0,0-.928,1.441l1.893,4.164,7.643,6.624Z" transform="translate(-130.387 -248.926)" fill="#f5cbaa"/>
</svg>
