<svg xmlns="http://www.w3.org/2000/svg" width="160" height="160" viewBox="0 0 160 160">
  <g id="ممتلئ" transform="translate(10 -32)">
    <g id="المقاعد_الممتلئة" data-name="المقاعد الممتلئة" transform="translate(-10 42)">
      <g id="Ellipse_13" data-name="Ellipse 13" transform="translate(0 -10)" fill="#fff" stroke="#ff0909" stroke-width="3">
        <circle cx="80" cy="80" r="80" stroke="none"/>
        <circle cx="80" cy="80" r="78.5" fill="none"/>
      </g>
      <g id="Asset_1" data-name="Asset 1" transform="translate(28 30)">
        <g id="Layer_2" data-name="Layer 2">
          <g id="Background">
            <rect id="Rectangle_27" data-name="Rectangle 27" width="1.985" height="29.113" transform="translate(96.337 46.758)" fill="#5b0000"/>
            <rect id="Rectangle_28" data-name="Rectangle 28" width="1.985" height="29.113" transform="translate(79.123 46.758)" fill="#5b0000"/>
            <path id="Path_43" data-name="Path 43" d="M90.9,69.343s-.148.241-.2.255-.4-.255-.4-.255h-.9s-.174.255-.241.255-.3-.255-.3-.255H87.98s-.2.255-.282.255-.268-.255-.268-.255h-.9s-.188.255-.255.255-.3-.255-.3-.255h-.9s-.188.255-.268.255-.282-.255-.282-.255h-.9s-.174.255-.241.255-.308-.255-.308-.255H82.16s-.2.255-.268.255-.268-.255-.268-.255h-.9s-.161.255-.228.255-.322-.255-.322-.255h-.885s-.2.255-.268.255-.282-.255-.282-.255h-.9s-.174.255-.241.255-.308-.255-.308-.255h-.9s-.188.255-.255.255-.3-.255-.3-.255h-.9s-.188.255-.255.255-.3-.255-.3-.255h-.9s-.188.255-.268.255-.282-.255-.282-.255h-.9s-.174.255-.255.255-.3-.255-.3-.255h-.9s-.174.255-.241.255-.268-.255-.268-.255h-.885s-.215.255-.282.255-.268-.255-.268-.255h-.9s-.2.255-.282.255-.268-.255-.268-.255h-.9s-.188.255-.255.255-.255-.255-.255-.255L65.934,44.4H90.555Z" transform="translate(8.919 0.87)" fill="#cee0ff"/>
            <path id="Path_44" data-name="Path 44" d="M66.15,68.742l.375-22.462.523,22.462Z" transform="translate(12.277 1.511)" fill="#b8d1ff"/>
            <path id="Path_45" data-name="Path 45" d="M67.23,68.125l.375-20.035.523,20.035Z" transform="translate(12.477 2.128)" fill="#b8d1ff"/>
            <path id="Path_46" data-name="Path 46" d="M68.31,68.742l.375-22.462.51,22.462Z" transform="translate(12.679 1.511)" fill="#b8d1ff"/>
            <path id="Path_47" data-name="Path 47" d="M69.39,68.742l.375-22.462.51,22.462Z" transform="translate(12.879 1.511)" fill="#b8d1ff"/>
            <path id="Path_48" data-name="Path 48" d="M70.46,68.125l.375-20.035.523,20.035Z" transform="translate(10.509 2.128)" fill="#b8d1ff"/>
            <path id="Path_49" data-name="Path 49" d="M71.54,68.742l.375-22.462.523,22.462Z" transform="translate(10.877 1.511)" fill="#b8d1ff"/>
            <path id="Path_50" data-name="Path 50" d="M72.62,68.381,73,47.34l.523,21.041Z" transform="translate(11.245 1.872)" fill="#b8d1ff"/>
            <path id="Path_51" data-name="Path 51" d="M73.7,68.742l.376-22.462L74.6,68.742Z" transform="translate(11.613 1.511)" fill="#b8d1ff"/>
            <path id="Path_52" data-name="Path 52" d="M74.78,68.742l.375-22.462.523,22.462Z" transform="translate(11.982 1.511)" fill="#b8d1ff"/>
            <path id="Path_53" data-name="Path 53" d="M75.86,68.742l.375-22.462.51,22.462Z" transform="translate(12.35 1.511)" fill="#b8d1ff"/>
            <path id="Path_54" data-name="Path 54" d="M76.93,68.125l.375-20.035.523,20.035Z" transform="translate(12.715 2.128)" fill="#b8d1ff"/>
            <path id="Path_55" data-name="Path 55" d="M78.01,68.742l.375-22.462.523,22.462Z" transform="translate(13.083 1.511)" fill="#b8d1ff"/>
            <path id="Path_56" data-name="Path 56" d="M79.09,68.742l.375-22.462.523,22.462Z" transform="translate(13.451 1.511)" fill="#b8d1ff"/>
            <path id="Path_57" data-name="Path 57" d="M80.17,68.251l.375-20.531.523,20.531Z" transform="translate(13.82 2.002)" fill="#b8d1ff"/>
            <path id="Path_58" data-name="Path 58" d="M81.25,68.251l.375-20.531.523,20.531Z" transform="translate(14.188 2.002)" fill="#b8d1ff"/>
            <path id="Path_59" data-name="Path 59" d="M82.33,68.742l.375-22.462.523,22.462Z" transform="translate(14.556 1.511)" fill="#b8d1ff"/>
            <path id="Path_60" data-name="Path 60" d="M83.41,68.483l.375-21.443.51,21.443Z" transform="translate(14.925 1.77)" fill="#b8d1ff"/>
            <rect id="Rectangle_29" data-name="Rectangle 29" width="25.318" height="5.512" rx="1.48" transform="translate(74.438 48.821)" fill="#b8d1ff"/>
            <path id="Path_61" data-name="Path 61" d="M88.077,16.733h0a1.623,1.623,0,0,0-1.8,1.421L82.123,53.423a1.623,1.623,0,0,0,1.421,1.8h0a1.609,1.609,0,0,0,1.8-1.341L89.5,18.6a1.623,1.623,0,0,0-1.421-1.864Z" transform="translate(14.482 -0.035)" fill="#b8d1ff"/>
            <path id="Path_62" data-name="Path 62" d="M59.447,40.209c-2.91,1.22-1.086,4.707.134,4.519,2.266-.362,21.349-1.019,22.542-.51s5.7-.738,5.793-3.353.188-8.274-3.527-7.644S59.447,40.209,59.447,40.209Z" transform="translate(6.22 3.638)" fill="#ffa47c"/>
            <path id="Path_63" data-name="Path 63" d="M58.259,39.881c0-1.126,3.151-2.682,5.042-.255s2.83,6.5,2.494,11.023c-.335,4.734-1.006,12.646-.684,14.9.55,4.023,1.8,3.5,1.6,5.753-.094,1.073-2.226,1.716-4.6,3-2.87,1.556-4.331,3-4.814,2.038s2.575-1.676,4.479-8.515c.563-2.038-1.207-9.9-1.931-14.885a113.452,113.452,0,0,1-1.582-13.061Z" transform="translate(9.917 -1.196)" fill="#ffa47c"/>
            <path id="Path_64" data-name="Path 64" d="M66.483,60.62a2.682,2.682,0,0,1,.939,2.762,34.451,34.451,0,0,0-.483,5.793v.4h-.63s-.148-3.5-.7-3.782-1.126.308-2.052,1.341-1.877,2.682-2.28,2.682c-.831.241-5.431.63-5.887-.282-.215-.429,3.058-2.065,3.058-2.065a3.943,3.943,0,0,0,2.682-.188c.966-.644,2.467-3.554,3.46-4.72A21.564,21.564,0,0,1,66.483,60.62Z" transform="translate(9.363 6.401)"/>
            <path id="Path_65" data-name="Path 65" d="M57.724,42.949c-1.918.952-1.234,4.828,0,4.935,2.521.215,23.347-2.239,24.688-1.784s6.2-1.073,6.075-3.728-.483-8.448-4.506-7.59S64.214,39.73,57.724,42.949Z" transform="translate(5.758 3.643)" fill="#ffbd95"/>
            <path id="Path_66" data-name="Path 66" d="M56.557,42.683c.349-1.529,1.5-2.776,4.023-.966s4.506,5.485,5.431,9.91c.979,4.653,2.521,12.431,3.446,14.51,1.623,3.7,2.682,2.87,3.111,5.1.215,1.046-1.676,2.253-3.594,4.144-2.333,2.293-3.339,4.023-4.023,3.3s2.025-2.32,1.971-9.387c0-2.105-3.876-9.173-5.941-13.786S55.846,45.969,56.557,42.683Z" transform="translate(9.159 -0.351)" fill="#ffbd95"/>
            <path id="Path_67" data-name="Path 67" d="M69.324,61.46s1.341.322,1.663,2.387a35.459,35.459,0,0,0,1.1,5.713l.134.389-.617.2s-1.1-3.326-1.69-3.446-1.006.6-1.623,1.824a21.67,21.67,0,0,1-1.435,3.245c-.738.456-5.042,2.105-5.74,1.341-.335-.362,2.374-2.843,2.374-2.843a3.9,3.9,0,0,0,2.535-.912c.764-.885,1.341-4.1,2.025-5.485A23.627,23.627,0,0,1,69.324,61.46Z" transform="translate(10.424 6.687)"/>
            <path id="Path_68" data-name="Path 68" d="M74.32,15.055c2.964,1.757,1.7,3.513-2.4,8.341s-8.341,10.514-10.581,8.422,3.554-6.879,5.7-9.87S71.933,13.714,74.32,15.055Z" transform="translate(9.977 1.368)" fill="#ffa47c"/>
            <path id="Path_69" data-name="Path 69" d="M71.906,13.84,69.358,15.7l-.9,5.069Z" transform="translate(12.467 1.69)" fill="#5b0000"/>
            <path id="Path_70" data-name="Path 70" d="M68.41,22.588a25.654,25.654,0,0,0,2.964-7.939c.536-3.782-.979-5.5-.979-5.5L74.74,7.81a6.4,6.4,0,0,0,.429,4.023c.966,2.682,2.025,2.548,2.025,2.548a32.681,32.681,0,0,1-3.151,5.23C71.025,22.963,68.41,22.588,68.41,22.588Z" transform="translate(9.809 2.668)" fill="#ffa47c"/>
            <path id="Path_71" data-name="Path 71" d="M75.806,1.656c-3.031-2.91-7.791-1.247-8.717.992a4.559,4.559,0,0,0-.282,3.876,26.226,26.226,0,0,1-.241,3.768H67.5s.268,1.609.469,2.883c.107.684,1.9.469,3.581.483a6.879,6.879,0,0,0,4.023-1.69,8.636,8.636,0,0,0,1.69-4.492C77.522,3.989,76.382,2.205,75.806,1.656Z" transform="translate(9.159 0.039)" fill="#ffbd95"/>
            <path id="Path_72" data-name="Path 72" d="M80.262,12.7a10.969,10.969,0,0,1,4.372,8.287c.121,3.473-.282,8.328-.174,13.652.107,4.761,2.4,6.075,3.8,9.079,1.569,3.353.563,9.535-1.6,9.535a126.687,126.687,0,0,0-20.893,2.508,61.768,61.768,0,0,1-5.176-4.251,9.87,9.87,0,0,1-1.019-4.492,149.415,149.415,0,0,1,15.328-4.8c2.172-.469,2.414-6.531,1.153-10.084-1.636-4.64-4.694-4.157-5.887-6.142-1.006-1.676.738-6.2,1.837-6.491a4.493,4.493,0,0,0,1.18,0c.711-.08,2.481-2.575,4.023-5.284A2.682,2.682,0,0,1,80.262,12.7Z" transform="translate(6.795 -0.417)" fill="#5b0000"/>
            <path id="Path_73" data-name="Path 73" d="M69.078,52.066c3.46,0,12.874.818,14.389-4.546a14.121,14.121,0,0,0-.536-9.092c-.939-2.789-1.515-9.548-2.91-14.215a42.912,42.912,0,0,1-.577-11.533c.483.375,3.339,2.2,4.345,7.63.389,2.092-.215,7.617.121,14.054.241,4.747,1.891,6.45,3.527,9.387,1.462,2.561,2.441,10.071-3.379,10.621-9.682.925-19.109,1.421-19.109,1.421L61.81,53.34a63.7,63.7,0,0,1,7.268-1.274Z" transform="translate(7.559 -0.417)" fill="#6d0000"/>
            <path id="Path_74" data-name="Path 74" d="M77.947,15.139c3.058,1.944,1.676,3.755-2.789,8.69s-8.971,10.259-11.251,8.046,3.849-6.611,6.182-9.7S75.48,13.583,77.947,15.139Z" transform="translate(8.104 1.365)" fill="#ffbd95"/>
            <path id="Path_75" data-name="Path 75" d="M65.83,30.305a32.573,32.573,0,0,0-2.682-6.423c-1.5-3.165-3.849-7.912-3.849-7.912l-1.569.7s.885,4.653,1.636,7.63c.831,3.205,1.716,5.726,3,6.973C64.489,33.35,65.83,30.305,65.83,30.305Z" transform="translate(10.124 1.543)" fill="#ffa47c"/>
            <path id="Path_76" data-name="Path 76" d="M66,4.99,71.364,4.8s1.207.429,1.167,3.688a20.035,20.035,0,0,1-1.6,6.786s6.705-1.006,7.59-2.012.952-5.217.952-5.217-.3-7.3-4.72-7.885S67.9.631,67.1,2.2A13.41,13.41,0,0,0,66,4.99Z" transform="translate(8.988 0.003)" fill="#3b0500"/>
            <path id="Path_77" data-name="Path 77" d="M66.388,28.641a6.558,6.558,0,0,0-.644-3.715,17.434,17.434,0,0,1-1.22-2.95s-.617-.456-1.529.268-.322,2.253-.107,3.943a5.19,5.19,0,0,0,1.958,3.54C66.093,30.518,66.388,29.124,66.388,28.641Z" transform="translate(11.34 2.597)" fill="#ffbd95"/>
            <path id="Path_78" data-name="Path 78" d="M60.544,16.872c.55,1.126.174,2.4-1.033,2.266a4.345,4.345,0,0,1-3.312-2.2c-1.046-1.556-2.682-5.109-2.065-5.364s1.421,1.824,2.682,2.87C58.546,16,59.928,15.6,60.544,16.872Z" transform="translate(9.576 1.392)" fill="#ffa47c"/>
            <path id="Path_79" data-name="Path 79" d="M57.593,15.15c-.818-.925-1.341-1.824-1.086-2.012s1.059.4,1.891,1.341,1.341,1.824,1.086,2.012S58.424,16.076,57.593,15.15Z" transform="translate(10.307 1.711)" fill="#ffa47c"/>
            <rect id="Rectangle_30" data-name="Rectangle 30" width="4.72" height="36.999" transform="translate(48.857 31.98)" fill="#7e0000"/>
            <path id="Path_80" data-name="Path 80" d="M42.879,70.5H41.39V34.49h1.489V61.538l3.232-1.126v2.561l-2.347,1.944-.885-.55Z" transform="translate(7.467 -2.51)" fill="#5b0000"/>
            <path id="Path_81" data-name="Path 81" d="M37.237,69.615H34.26a8.743,8.743,0,0,1,2.494-6.169,7.282,7.282,0,0,1,5.2-2.186h4.278v2.977H41.957a4.385,4.385,0,0,0-3.071,1.341,5.793,5.793,0,0,0-1.649,4.036Z" transform="translate(5.803 6.619)" fill="#7e0000"/>
            <path id="Path_82" data-name="Path 82" d="M52.1,69.615h2.923a8.73,8.73,0,0,0-2.481-6.169,7.309,7.309,0,0,0-5.163-2.186H43.14v2.977H47.4a4.332,4.332,0,0,1,3.058,1.341A5.753,5.753,0,0,1,52.1,69.615Z" transform="translate(7.312 6.619)" fill="#7e0000"/>
            <path id="Path_83" data-name="Path 83" d="M41.518,62.63h0a5.029,5.029,0,0,0-3.366,1.341A7.845,7.845,0,0,0,35.9,68.8H34.29v.375h2.977a5.793,5.793,0,0,1,1.609-4.023,4.385,4.385,0,0,1,3.071-1.341h4.264V62.67Z" transform="translate(5.811 7.086)" fill="#5b0000"/>
            <path id="Path_84" data-name="Path 84" d="M47.84,62.63H43.16v1.14h4.264a4.332,4.332,0,0,1,3.058,1.341A5.753,5.753,0,0,1,52.1,69.134h1.059a8.542,8.542,0,0,0-1.944-5.2,5.029,5.029,0,0,0-3.379-1.3Z" transform="translate(7.445 7.086)" fill="#5b0000"/>
            <path id="Path_85" data-name="Path 85" d="M37.693,68.618H34.327a.7.7,0,0,1-.7-.7h0a.711.711,0,0,1,.7-.711h3.366a.711.711,0,0,1,.711.711h0a.7.7,0,0,1-.711.7Z" transform="translate(6.066 8.648)" fill="#7e0000"/>
            <path id="Path_86" data-name="Path 86" d="M53.153,68.618H49.787a.7.7,0,0,1-.7-.7h0a.711.711,0,0,1,.7-.711h3.366a.711.711,0,0,1,.711.711h0a.7.7,0,0,1-.711.7Z" transform="translate(8.85 8.648)" fill="#7e0000"/>
            <rect id="Rectangle_31" data-name="Rectangle 31" width="8.006" height="0.885" transform="translate(59.929 28.734)" fill="#b84c00"/>
            <rect id="Rectangle_32" data-name="Rectangle 32" width="8.006" height="0.885" transform="translate(59.929 27.996)" fill="#7e0000"/>
            <rect id="Rectangle_33" data-name="Rectangle 33" width="8.006" height="0.885" transform="translate(59.929 27.291)" fill="#b84c00"/>
            <rect id="Rectangle_34" data-name="Rectangle 34" width="8.006" height="0.885" transform="translate(59.929 26.541)" fill="#7e0000"/>
            <rect id="Rectangle_35" data-name="Rectangle 35" width="8.006" height="0.885" transform="translate(59.929 25.837)" fill="#b84c00"/>
            <path id="Path_87" data-name="Path 87" d="M50.786,22.97c0-.134-.241-.456.831-.456s7.188-.121,7.456,0,.228.912.2,1.153a10.48,10.48,0,0,1,0,1.716c-.121.255-.148.6-.469.644s-.362-1.341-.362-1.73-.308-1.153-.738-1.019-1.341.228-1.153.818.2.939.268,1.153c.2.577-.992.5-.872,0s.161-1.207-.255-1.475-.657-.684-1.261-.443-.375,1.408-.778,1.019-.241-1.207-.51-1.234-.308,2.95-.657,3.071-.241-3-.4-3-.791.764-1.033.764S50.786,22.97,50.786,22.97Z" transform="translate(8.868 2.914)" fill="#470000"/>
            <rect id="Rectangle_36" data-name="Rectangle 36" width="8.006" height="0.885" transform="translate(59.929 29.438)" fill="#7e0000"/>
            <path id="Path_88" data-name="Path 88" d="M62.416,26.44c0,1.073-3.218,1.931-7.188,1.931S48,27.513,48,26.44Z" transform="translate(7.932 3.539)" fill="#b8d1ff"/>
            <rect id="Rectangle_37" data-name="Rectangle 37" width="7.697" height="0.282" rx="0.1" transform="translate(59.412 31.485)" fill="#b8d1ff"/>
            <path id="Path_89" data-name="Path 89" d="M56.957,21.84H54.906a.416.416,0,0,0-.416.416h0a.416.416,0,0,0,.416.416h2.052a.416.416,0,0,0,.416-.416h0a.416.416,0,0,0-.416-.416Z" transform="translate(9.968 2.977)" fill="#b8d1ff"/>
            <path id="Path_90" data-name="Path 90" d="M56.4,21.773c0,.241-.268.429-.6.429s-.59-.188-.59-.429.268-.443.59-.443S56.4,21.531,56.4,21.773Z" transform="translate(10.226 2.906)" fill="#c90000"/>
            <rect id="Rectangle_38" data-name="Rectangle 38" width="1.985" height="29.113" transform="translate(7.668 75.872) rotate(180)" fill="#5b0000"/>
            <rect id="Rectangle_39" data-name="Rectangle 39" width="1.985" height="29.113" transform="translate(24.869 75.872) rotate(180)" fill="#5b0000"/>
            <path id="Path_91" data-name="Path 91" d="M3.11,69.343s.148.241.2.255.389-.255.389-.255h.9s.188.255.255.255.3-.255.3-.255h.9s.2.255.268.255.282-.255.282-.255h.9s.188.255.255.255.3-.255.3-.255h.9s.188.255.255.255.3-.255.3-.255h.9s.174.255.241.255a1.815,1.815,0,0,0,.375-.255h.9s.188.255.268.255.174-.255.174-.255h.9s.174.255.241.255.308-.255.308-.255h.9s.188.255.268.255.282-.255.282-.255h.9s.174.255.241.255.308-.255.308-.255h.9s.188.255.255.255.3-.255.3-.255h.912s.188.255.255.255.3-.255.3-.255h.9s.188.255.268.255.282-.255.282-.255h.885s.188.255.255.255.3-.255.3-.255h.9s.188.255.241.255.308-.255.308-.255h.9s.2.255.282.255.268-.255.268-.255h.9s.2.255.268.255.282-.255.282-.255h.9s.174.255.241.255.268-.255.268-.255L28.08,44.4H3.459Z" transform="translate(1.071 0.87)" fill="#cee0ff"/>
            <path id="Path_92" data-name="Path 92" d="M21.708,68.742,21.333,46.28,20.81,68.742Z" transform="translate(3.868 1.511)" fill="#b8d1ff"/>
            <path id="Path_93" data-name="Path 93" d="M20.628,68.125,20.253,48.09,19.73,68.125Z" transform="translate(3.668 2.128)" fill="#b8d1ff"/>
            <path id="Path_94" data-name="Path 94" d="M19.548,68.742,19.173,46.28,18.65,68.742Z" transform="translate(3.468 1.511)" fill="#b8d1ff"/>
            <path id="Path_95" data-name="Path 95" d="M18.468,68.742,18.093,46.28,17.57,68.742Z" transform="translate(3.268 1.511)" fill="#b8d1ff"/>
            <path id="Path_96" data-name="Path 96" d="M17.385,68.125,17.01,48.09,16.5,68.125Z" transform="translate(5.637 2.128)" fill="#b8d1ff"/>
            <path id="Path_97" data-name="Path 97" d="M16.318,68.742,15.93,46.28l-.51,22.462Z" transform="translate(5.269 1.511)" fill="#b8d1ff"/>
            <path id="Path_98" data-name="Path 98" d="M15.238,68.381,14.863,47.34,14.34,68.381Z" transform="translate(4.901 1.872)" fill="#b8d1ff"/>
            <path id="Path_99" data-name="Path 99" d="M14.158,68.742,13.783,46.28,13.26,68.742Z" transform="translate(4.532 1.511)" fill="#b8d1ff"/>
            <path id="Path_100" data-name="Path 100" d="M13.078,68.742,12.7,46.28,12.18,68.742Z" transform="translate(4.164 1.511)" fill="#b8d1ff"/>
            <path id="Path_101" data-name="Path 101" d="M12,68.742,11.623,46.28,11.1,68.742Z" transform="translate(3.796 1.511)" fill="#b8d1ff"/>
            <path id="Path_102" data-name="Path 102" d="M10.915,68.125,10.54,48.09l-.51,20.035Z" transform="translate(3.431 2.128)" fill="#b8d1ff"/>
            <path id="Path_103" data-name="Path 103" d="M9.848,68.742,9.473,46.28,8.95,68.742Z" transform="translate(3.063 1.511)" fill="#b8d1ff"/>
            <path id="Path_104" data-name="Path 104" d="M8.768,68.742,8.393,46.28,7.87,68.742Z" transform="translate(2.694 1.511)" fill="#b8d1ff"/>
            <path id="Path_105" data-name="Path 105" d="M7.688,68.251,7.313,47.72,6.79,68.251Z" transform="translate(2.326 2.002)" fill="#b8d1ff"/>
            <path id="Path_106" data-name="Path 106" d="M6.608,68.251,6.233,47.72,5.71,68.251Z" transform="translate(1.958 2.002)" fill="#b8d1ff"/>
            <path id="Path_107" data-name="Path 107" d="M5.528,68.742,5.153,46.28,4.63,68.742Z" transform="translate(1.589 1.511)" fill="#b8d1ff"/>
            <path id="Path_108" data-name="Path 108" d="M4.448,68.483,4.073,47.04,3.55,68.483Z" transform="translate(1.221 1.77)" fill="#b8d1ff"/>
            <rect id="Rectangle_40" data-name="Rectangle 40" width="25.318" height="5.512" rx="1.48" transform="translate(29.566 54.333) rotate(180)" fill="#b8d1ff"/>
            <path id="Path_109" data-name="Path 109" d="M1.438,16.733h0a1.623,1.623,0,0,1,1.8,1.421L7.378,53.423a1.623,1.623,0,0,1-1.421,1.8h0a1.609,1.609,0,0,1-1.8-1.341L0,18.53a1.623,1.623,0,0,1,1.435-1.8Z" transform="translate(0.008 -0.035)" fill="#b8d1ff"/>
            <path id="Path_110" data-name="Path 110" d="M32.717,19.423h0a.268.268,0,0,1-.362-.121l-2.427-5.082a.268.268,0,0,1,.121-.362h0a.268.268,0,0,1,.362.121l2.441,5.082a.268.268,0,0,1-.134.362Z" transform="translate(5.469 1.733)" fill="#303030"/>
            <path id="Path_111" data-name="Path 111" d="M33.137,18.518c.268.55.174,1.153-.188,1.341s-.885-.134-1.14-.684-.188-1.153.174-1.341S32.868,17.968,33.137,18.518Z" transform="translate(5.849 2.373)" fill="#303030"/>
            <path id="Path_112" data-name="Path 112" d="M31.51,20.008s0-1.153.8-1.194,1.475-.335,1.435-.577,1.341.939,1.341,1.77S31.51,20.008,31.51,20.008Z" transform="translate(5.737 2.428)" fill="#db6f89"/>
            <path id="Path_113" data-name="Path 113" d="M33.447,27.136c1.341,0,2.36-3.111,2.36-6.946H31.1C31.1,24.025,32.159,27.136,33.447,27.136Z" transform="translate(5.613 2.463)" fill="#b8d1ff"/>
            <path id="Path_114" data-name="Path 114" d="M33.351,26.848c1.1,0,1.985-3.259,1.985-7.268H31.38C31.38,23.549,32.211,26.848,33.351,26.848Z" transform="translate(5.697 2.373)" fill="#db6f89"/>
            <rect id="Rectangle_41" data-name="Rectangle 41" width="5.123" height="0.952" transform="translate(36.506 22.21)" fill="#b8d1ff"/>
            <rect id="Rectangle_42" data-name="Rectangle 42" width="0.872" height="3.004" transform="translate(38.573 28.546)" fill="#b8d1ff"/>
            <path id="Path_115" data-name="Path 115" d="M35.117,27.813,33.75,27.29h-.872l-1.368.523v.268h3.607Z" transform="translate(5.736 3.722)" fill="#b8d1ff"/>
            <path id="Path_116" data-name="Path 116" d="M34.882,19.55a12.525,12.525,0,0,1-.443,5.19C33.6,27.06,33.1,27.167,33.1,27.167v2.762l1.341.818H32.9l-.188-.818V27.167a19.875,19.875,0,0,0,.966-3.728,32.947,32.947,0,0,0,0-3.889Z" transform="translate(6.015 2.166)" fill="#fff"/>
            <path id="Path_117" data-name="Path 117" d="M35.826,40.209c2.91,1.22,1.073,4.707-.134,4.519-2.266-.362-21.362-1.019-22.542-.51s-5.713-.738-5.793-3.353-.188-8.274,3.513-7.644S35.826,40.209,35.826,40.209Z" transform="translate(2.511 3.638)" fill="#ffa47c"/>
            <path id="Path_118" data-name="Path 118" d="M31.828,39.881c0-1.126-3.151-2.682-5.042-.255s-2.83,6.5-2.548,11.023c.335,4.734.992,12.646.684,14.9-.55,4.023-1.8,3.5-1.6,5.753.08,1.073,2.226,1.716,4.6,3,2.856,1.556,4.318,3,4.814,2.038s-2.521-1.676-4.479-8.515c-.577-2.038,1.207-9.9,1.931-14.885a119.779,119.779,0,0,0,1.636-13.061Z" transform="translate(4.043 -1.196)" fill="#ffa47c"/>
            <path id="Path_119" data-name="Path 119" d="M24.263,60.62a2.588,2.588,0,0,0-.939,2.762,35.94,35.94,0,0,1,.469,5.793v.4h.63s.148-3.5.7-3.782,1.113.308,2.052,1.341,1.877,2.682,2.28,2.682c.831.241,5.364.63,5.874-.282.215-.362-3.017-2.025-3.017-2.025a3.943,3.943,0,0,1-2.682-.188c-.979-.644-2.481-3.554-3.473-4.72a22.8,22.8,0,0,0-1.891-1.985Z" transform="translate(3.933 6.401)" fill="#3b0500"/>
            <path id="Path_120" data-name="Path 120" d="M38.023,42.949c1.931.952,1.234,4.828,0,4.935-2.535.215-23.347-2.239-24.688-1.784s-6.2-1.073-6.075-3.728.5-8.448,4.506-7.59S31.546,39.73,38.023,42.949Z" transform="translate(2.486 3.643)" fill="#ffbd95"/>
            <path id="Path_121" data-name="Path 121" d="M31.9,41.486c-1.046-1.18-2.682-1.73-4.023,1.046s-1.341,6.96-.094,11.3,3.674,12.069,3.849,14.4c.308,4.023-1.019,3.8-.335,5.968.308,1.019,2.535,1.193,5.136,1.944,3.125.912,4.868,2.012,5.136.966s-2.883-1.073-6.2-7.362C34.4,67.89,34.45,59.831,34.034,54.8S34.115,44.02,31.9,41.486Z" transform="translate(4.428 -0.454)" fill="#ffbd95"/>
            <path id="Path_122" data-name="Path 122" d="M30.472,63.26a2.6,2.6,0,0,0-.349,2.9,34.117,34.117,0,0,1,1.743,5.538v.416L32.5,72s-.6-3.46-.134-3.849,1.167,0,2.293.845,2.387,2.159,2.8,2.172c.858,0,5.364-.536,5.686-1.515.121-.483-3.42-1.341-3.42-1.341a3.943,3.943,0,0,1-2.682.4c-1.019-.443-3.1-3-4.3-3.929A23.857,23.857,0,0,0,30.472,63.26Z" transform="translate(4.989 7.301)" fill="#3b0500"/>
            <path id="Path_123" data-name="Path 123" d="M17.153,15.055c-2.964,1.757-1.7,3.513,2.4,8.341s8.341,10.514,10.581,8.422-3.567-6.879-5.713-9.87S19.54,13.714,17.153,15.055Z" transform="translate(2.554 1.368)" fill="#ffa47c"/>
            <path id="Path_124" data-name="Path 124" d="M16.6,13.84,19.148,15.7l.9,5.069Z" transform="translate(3.03 1.69)" fill="#bd0000"/>
            <path id="Path_125" data-name="Path 125" d="M21.454,22.588a25.9,25.9,0,0,1-2.977-7.939c-.523-3.782.979-5.5.979-5.5L15.111,7.81a6.276,6.276,0,0,1-.429,4.023c-.952,2.682-2.012,2.548-2.012,2.548a33.351,33.351,0,0,0,3.125,5.243C18.839,22.963,21.454,22.588,21.454,22.588Z" transform="translate(4.331 2.668)" fill="#ffa47c"/>
            <path id="Path_126" data-name="Path 126" d="M14.882,2.766c2.682-2.548,6.826-1.086,7.63.858a4.023,4.023,0,0,1,.255,3.393,24.085,24.085,0,0,0,.2,3.3h-.818s-.241,1.408-.416,2.521c-.094.6-1.663.416-3.138.416a6.008,6.008,0,0,1-3.567-1.462,7.563,7.563,0,0,1-1.421-4.023C13.381,4.885,14.373,3.249,14.882,2.766Z" transform="translate(2.36 0.484)" fill="#ffbd95"/>
            <path id="Path_127" data-name="Path 127" d="M14.9,12.693a10.889,10.889,0,0,0-4.372,8.287c-.121,3.473.282,8.328.174,13.652-.107,4.761-2.4,6.075-3.8,9.079-1.569,3.353-.563,9.535,1.6,9.535a126.433,126.433,0,0,1,20.88,2.508,61.688,61.688,0,0,0,5.19-4.251,9.87,9.87,0,0,0,1.019-4.492,149.416,149.416,0,0,0-15.422-4.8c-2.186-.469-2.414-6.531-1.153-10.084,1.623-4.64,4.68-4.157,5.887-6.142,1.006-1.676-.738-6.2-1.837-6.491a4.492,4.492,0,0,1-1.18,0c-.711-.08-2.481-2.575-4.023-5.284A2.682,2.682,0,0,0,14.9,12.693Z" transform="translate(2.105 -0.416)" fill="#d60000"/>
            <path id="Path_128" data-name="Path 128" d="M25.354,52.066c-3.46,0-12.887.818-14.389-4.546a14.121,14.121,0,0,1,.536-9.092c.939-2.789,1.515-9.548,2.91-14.215a43.4,43.4,0,0,0,.577-11.533c-.5.375-3.339,2.2-4.358,7.63-.389,2.092.228,7.617-.107,14.054-.241,4.747-1.891,6.45-3.527,9.387-1.462,2.561-2.454,10.071,3.379,10.621,9.682.925,19.1,1.421,19.1,1.421l3.138-2.454a63.472,63.472,0,0,0-7.255-1.274Z" transform="translate(2.013 -0.417)" fill="#bd0000"/>
            <path id="Path_129" data-name="Path 129" d="M13.8,15.139c-3.058,1.944-1.676,3.755,2.789,8.69s8.958,10.259,11.238,8.046-3.808-6.651-6.182-9.736S16.264,13.584,13.8,15.139Z" transform="translate(4.156 1.365)" fill="#ffbd95"/>
            <path id="Path_130" data-name="Path 130" d="M22.775,3.812,18.537,5.475c-.912.349-1.542,2.6-1.676,3.111a22.971,22.971,0,0,1-1.944,2.883S12.4,8.4,12.865,5.234A4.586,4.586,0,0,1,17.491.876C19.771.648,23.553,2.217,22.775,3.812Z" transform="translate(4.378 0.296)" fill="#8d3b26"/>
            <path id="Path_131" data-name="Path 131" d="M16.839,3.559s-.5-3.9-2.83-3.218-3.567,4.492-3.165,6.182,0,7.738-.335,7.644-.268,1.006.416,1.247,2.762.322,3.058-2.682A10.5,10.5,0,0,1,15.5,8.078Z" transform="translate(3.528 0.093)" fill="#8d3b26"/>
            <path id="Path_132" data-name="Path 132" d="M21.64,29.377a31.675,31.675,0,0,1,4.184-5.592c2.213-2.682,5.632-6.705,5.632-6.705L32.8,18.139s-1.958,4.2-3.42,6.946c-1.556,2.923-3.031,5.149-4.573,6.061C22.217,32.649,21.64,29.377,21.64,29.377Z" transform="translate(3.698 1.731)" fill="#ffbd95"/>
            <path id="Path_133" data-name="Path 133" d="M28.68,18.431a31.326,31.326,0,0,1,2.333-4.171,2.749,2.749,0,0,1,1.341.939,2.266,2.266,0,0,1,.241,2.253s-.2-.577-.268-.577-.4,1.18-.979,1.556a5.23,5.23,0,0,0-.979.8Z" transform="translate(5.202 1.81)" fill="#ffbd95"/>
            <path id="Path_134" data-name="Path 134" d="M17.094,6.445c.215.885,0,1.716-.5,1.837s-1.073-.51-1.341-1.341,0-1.716.5-1.837S16.88,5.56,17.094,6.445Z" transform="translate(5.177 1.74)" fill="#ffbd95"/>
            <path id="Path_135" data-name="Path 135" d="M21.1,27.89,18.14,34.555,51.692,65.184,85.231,34.555,82.267,27.89Z" transform="translate(-0.332 0.144)" fill="#cee0ff"/>
          </g>
        </g>
      </g>
    </g>
  </g>
</svg>
