<svg id="svgexport-7_15_" data-name="svgexport-7 (15)" xmlns="http://www.w3.org/2000/svg" width="34.096" height="35" viewBox="0 0 34.096 35">
  <g id="Group_8903" data-name="Group 8903" transform="translate(0)">
    <path id="Path_54930" data-name="Path 54930" d="M99,115.842V103.066a3.031,3.031,0,1,1,6.062,0V106.2l8.213-8.213a2.627,2.627,0,0,1,3.716,3.716l1.876-1.876a2.627,2.627,0,1,1,3.716,3.716l-1.086,1.086a2.627,2.627,0,0,1,3.716,3.716l-2.68,2.68a2.627,2.627,0,0,1,3.716,3.716l-8.273,8.273a10.875,10.875,0,0,1-15.379,0l-1.066-1.066A8.611,8.611,0,0,1,99,115.842h0Z" transform="translate(-99.003 -91.201)" fill="#f6ee86"/>
    <g id="Group_8900" data-name="Group 8900" transform="translate(12.375 10.267)">
      <path id="Path_54931" data-name="Path 54931" d="M100.006,284.979l.386-.386.955-.61a2.628,2.628,0,0,1,2.761,4.326L99,293.417c1.662-2.878,2-6.45,1.007-8.439Z" transform="translate(-89.235 -274.747)" fill="#eed076"/>
      <path id="Path_54932" data-name="Path 54932" d="M115.488,196.872l-1.439,1.439c.258-.8.888-4.007-.222-5.916a2.627,2.627,0,0,1,1.661,4.477Z" transform="translate(-101.65 -189.706)" fill="#eed076"/>
      <path id="Path_54933" data-name="Path 54933" d="M235.529,160.056a.523.523,0,0,0,.371-.154l5.092-5.092a.524.524,0,1,0-.741-.741l-5.092,5.092a.524.524,0,0,0,.371.895Z" transform="translate(-235.005 -153.915)" fill="#eed076"/>
      <path id="Path_54934" data-name="Path 54934" d="M171.044,202.783a.523.523,0,0,0,.371-.153l5.942-5.942a.524.524,0,0,0-.741-.741l-5.942,5.942a.524.524,0,0,0,.371.895Z" transform="translate(-166.864 -192.867)" fill="#eed076"/>
      <path id="Path_54935" data-name="Path 54935" d="M156.219,292.3a.522.522,0,0,0,.371-.154l3.92-3.92a.524.524,0,1,0-.741-.741l-3.92,3.92a.524.524,0,0,0,.371.895Z" transform="translate(-148.981 -278.009)" fill="#eed076"/>
    </g>
    <g id="Group_8901" data-name="Group 8901" transform="translate(4.846)">
      <path id="Path_54936" data-name="Path 54936" d="M312.827,57.45a3.976,3.976,0,0,1,3.056-2.952.524.524,0,1,0-.21-1.027,5.028,5.028,0,0,0-3.865,3.734.524.524,0,0,0,1.019.246Z" transform="translate(-307.999 -49.725)" fill="#4e5660"/>
      <path id="Path_54937" data-name="Path 54937" d="M317.046,7.372A8.529,8.529,0,0,1,323.6,1.038a.524.524,0,0,0-.21-1.027,9.581,9.581,0,0,0-7.365,7.115.524.524,0,1,0,1.019.246Z" transform="translate(-316.012 -0.001)" fill="#4e5660"/>
    </g>
    <g id="Group_8902" data-name="Group 8902" transform="translate(25.97 25.248)">
      <path id="Path_54938" data-name="Path 54938" d="M66.116,376.924a5.028,5.028,0,0,0,3.734-3.865.524.524,0,0,0-1.027-.21,3.976,3.976,0,0,1-2.952,3.056.524.524,0,0,0,.246,1.019Z" transform="translate(-65.469 -372.429)" fill="#4e5660"/>
      <path id="Path_54939" data-name="Path 54939" d="M12.657,384.641a9.581,9.581,0,0,0,7.115-7.365.524.524,0,0,0-1.027-.21,8.529,8.529,0,0,1-6.334,6.556.524.524,0,0,0,.246,1.019Z" transform="translate(-11.656 -376.353)" fill="#4e5660"/>
    </g>
    <path id="Path_54940" data-name="Path 54940" d="M359.676,272.443a.524.524,0,0,0,.481-.316,8.565,8.565,0,0,0-.547-7.866.524.524,0,1,0-.894.547,7.516,7.516,0,0,1,.48,6.9.524.524,0,0,0,.481.733Z" transform="translate(-350.986 -246.086)" fill="#eed076"/>
  </g>
</svg>
