<svg xmlns="http://www.w3.org/2000/svg" width="12.137" height="16.871" viewBox="0 0 12.137 16.871">
  <g id="svgexport-10_71_" data-name="svgexport-10 (71)" transform="translate(-97.103 0.001)">
    <path id="Path_149" data-name="Path 149" d="M97.1,11.634c0,2.892,2.717,5.236,6.068,5.236h0c3.351,0,6.068-2.344,6.068-5.236,0-2.909-1.686-5.236-.555-7.272a4.137,4.137,0,0,0-2.817,2.618S102.5,4.071,103.906,0a4.735,4.735,0,0,0-3.073,4.945c.308,3.243-.359,3.781-.359,3.781A4.451,4.451,0,0,0,98.1,4.944C98.789,8.144,97.1,9.016,97.1,11.634Z" fill="#ffb446"/>
    <path id="Path_150" data-name="Path 150" d="M158.148,176.241a4.51,4.51,0,0,1-4.473,4.63,3.869,3.869,0,0,1-3.953-4.213,10.218,10.218,0,0,1,2.191-4.488l.871.527a17.635,17.635,0,0,1,.983-4.973C154.432,170.714,158.148,171.489,158.148,176.241Z" transform="translate(-50.596 -164.002)" fill="#ffdc64"/>
    <path id="Path_151" data-name="Path 151" d="M186.39,284.506c-.337,2.023-1.011,2.759-1.011,4.046a2.792,2.792,0,0,0,2.7,2.7h0a2.706,2.706,0,0,0,2.7-2.726,8.2,8.2,0,0,0-2.36-6.039,3.528,3.528,0,0,1-.674,3.034A3.425,3.425,0,0,0,186.39,284.506Z" transform="translate(-84.905 -274.379)" fill="#fff"/>
  </g>
</svg>
