<svg xmlns="http://www.w3.org/2000/svg" width="20.089" height="27.128" viewBox="0 0 20.089 27.128">
  <g id="svgexport-7_16_" data-name="svgexport-7 (16)" transform="translate(-48.242 -34.975)">
    <path id="Path_54958" data-name="Path 54958" d="M144.945,212.044h-16.96a1.565,1.565,0,0,0-1.565,1.565V225.42a1.565,1.565,0,0,0,1.565,1.565h16.96a1.565,1.565,0,0,0,1.565-1.565V213.609A1.565,1.565,0,0,0,144.945,212.044Z" transform="translate(-78.179 -164.881)" fill="#dc8744"/>
    <path id="Path_54959" data-name="Path 54959" d="M230.389,99.041v3.849h2.636V99.041a7.4,7.4,0,0,0-7.387-7.387V94.29A4.756,4.756,0,0,1,230.389,99.041Z" transform="translate(-167.351 -56.679)" fill="#3a556a"/>
    <path id="Path_54960" data-name="Path 54960" d="M155.311,102.89V99.041a4.756,4.756,0,0,1,4.751-4.751V91.654a7.4,7.4,0,0,0-7.387,7.387v3.849h2.636Z" transform="translate(-101.775 -56.679)" fill="#64798a"/>
    <path id="Path_54961" data-name="Path 54961" d="M234.118,202.642h-8.48v14.94h8.48a1.565,1.565,0,0,0,1.565-1.565V204.207A1.565,1.565,0,0,0,234.118,202.642Z" transform="translate(-167.351 -156.431)" fill="#f6c358"/>
    <path id="Path_54962" data-name="Path 54962" d="M131.715,202.642h-3.729a1.565,1.565,0,0,0-1.565,1.565v11.811a1.565,1.565,0,0,0,1.565,1.565h8.48v-14.94Z" transform="translate(-78.179 -156.431)" fill="#fcd462"/>
    <path id="Path_54963" data-name="Path 54963" d="M211.548,238.029a1.789,1.789,0,1,0-2.745,1.507l-.533,2.541h2.98l-.533-2.541A1.783,1.783,0,0,0,211.548,238.029Z" transform="translate(-151.473 -186.627)" fill="#dc8744"/>
  </g>
</svg>
