<svg xmlns="http://www.w3.org/2000/svg" xmlns:xlink="http://www.w3.org/1999/xlink" width="32" height="32" viewBox="0 0 32 32">
  <defs>
    <clipPath id="clip-path">
      <rect id="Rectangle_1093" data-name="Rectangle 1093" width="32" height="32" fill="#fff"/>
    </clipPath>
  </defs>
  <g id="Mask_Group_9" data-name="Mask Group 9" clip-path="url(#clip-path)">
    <g id="svgexport-10_65_" data-name="svgexport-10 (65)">
      <path id="Path_54975" data-name="Path 54975" d="M18.616,2.483,2.483,30.3s5.007,4.451,16.133,4.451S34.749,30.3,34.749,30.3Z" transform="translate(-2.483 -2.483)" fill="#fdd14b"/>
      <path id="Path_54976" data-name="Path 54976" d="M34.749,41.411s-5.007,4.451-16.133,4.451S2.483,41.411,2.483,41.411L5.4,36.384C7.344,37.857,11.625,40.3,18.616,40.3s11.272-2.441,13.218-3.914Z" transform="translate(-2.483 -13.595)" fill="#ab6647"/>
      <g id="Group_8932" data-name="Group 8932" transform="translate(7.232 3.894)">
        <circle id="Ellipse_36" data-name="Ellipse 36" cx="2.782" cy="2.782" r="2.782" transform="translate(9.457)" fill="#e74444"/>
        <circle id="Ellipse_37" data-name="Ellipse 37" cx="2.782" cy="2.782" r="2.782" transform="translate(10.014 11.126)" fill="#e74444"/>
        <circle id="Ellipse_38" data-name="Ellipse 38" cx="2.782" cy="2.782" r="2.782" transform="translate(0 17.802)" fill="#e74444"/>
        <circle id="Ellipse_39" data-name="Ellipse 39" cx="2.782" cy="2.782" r="2.782" transform="translate(0 7.232)" fill="#e74444"/>
      </g>
      <circle id="Ellipse_40" data-name="Ellipse 40" cx="0.556" cy="0.556" r="0.556" transform="translate(13.908 7.232)" fill="#794832"/>
      <circle id="Ellipse_41" data-name="Ellipse 41" cx="0.556" cy="0.556" r="0.556" transform="translate(18.915 12.239)" fill="#794832"/>
      <circle id="Ellipse_42" data-name="Ellipse 42" cx="0.556" cy="0.556" r="0.556" transform="translate(6.676 19.471)" fill="#794832"/>
      <circle id="Ellipse_43" data-name="Ellipse 43" cx="0.556" cy="0.556" r="0.556" transform="translate(13.908 20.584)" fill="#794832"/>
      <path id="Path_54977" data-name="Path 54977" d="M22.929,17.379V19.6A2.481,2.481,0,0,0,21.26,21.83a2.481,2.481,0,0,0,1.669,2.225V26.28s-3.894-.556-3.894-4.451S22.929,17.379,22.929,17.379Z" transform="translate(-7.908 -7.366)" fill="#3ba673"/>
      <path id="Path_54978" data-name="Path 54978" d="M33.1,29.793h2.225a2.318,2.318,0,0,0,4.451,0H42s-.556,3.894-4.451,3.894S33.1,29.793,33.1,29.793Z" transform="translate(-12.52 -11.434)" fill="#3ba673"/>
      <path id="Path_54979" data-name="Path 54979" d="M26.474,36.405a4.725,4.725,0,0,0,1.3,3.664,2.776,2.776,0,0,0,3.147.787,2.776,2.776,0,0,0-.787-3.147A4.725,4.725,0,0,0,26.474,36.405Z" transform="translate(-10.341 -13.596)" fill="#3ba673"/>
    </g>
  </g>
</svg>
