<svg xmlns="http://www.w3.org/2000/svg" width="28.21" height="26.861" viewBox="0 0 28.21 26.861">
  <g id="svgexport-10_64_" data-name="svgexport-10 (64)" transform="translate(-3 -58.043)">
    <path id="Path_68" data-name="Path 68" d="M109.17,127.143h0A11.315,11.315,0,0,0,90.3,118.712h0a11.3,11.3,0,0,0-3.774,8.431h0a11.3,11.3,0,0,0,3.774,8.431h0a11.315,11.315,0,0,0,18.868-8.431Z" transform="translate(-80.921 -53.859)" fill="#e4eaf8"/>
    <g id="Group_50" data-name="Group 50" transform="translate(5.607 61.963)">
      <path id="Path_69" data-name="Path 69" d="M151.177,173.033a7.44,7.44,0,1,0,7.44,7.44A7.448,7.448,0,0,0,151.177,173.033Z" transform="translate(-139.856 -169.151)" fill="#d8dce5"/>
      <path id="Path_70" data-name="Path 70" d="M91.7,135.574h0a11.3,11.3,0,0,1,0-16.861h0a11.246,11.246,0,0,1,6.855-2.868c-.234-.014-.469-.023-.706-.023a11.286,11.286,0,0,0-7.547,2.89h0a11.3,11.3,0,0,0,0,16.861h0a11.248,11.248,0,0,0,7.547,2.89c.233,0,.464-.008.694-.022A11.25,11.25,0,0,1,91.7,135.574Z" transform="translate(-86.527 -115.822)" fill="#d8dce5"/>
    </g>
    <path id="Path_71" data-name="Path 71" d="M145.137,180.472a7.45,7.45,0,0,1,6.741-7.407c-.23-.022-.463-.033-.7-.033a7.44,7.44,0,0,0,0,14.879c.236,0,.469-.012.7-.033A7.45,7.45,0,0,1,145.137,180.472Z" transform="translate(-134.25 -107.188)" fill="#c3c8d1"/>
    <path id="Path_72" data-name="Path 72" d="M7.762,74.35c-1.752-.47-3.785,1.434-4.54,4.251a4.163,4.163,0,0,0,.012,2.777,6.352,6.352,0,0,1,.275,4.211L.041,98.528A1.2,1.2,0,0,0,.889,100h0a1.2,1.2,0,0,0,1.469-.848L5.825,86.211A6.352,6.352,0,0,1,8.169,82.7C10.29,81.154,10.653,75.125,7.762,74.35Z" transform="translate(3 -15.135)" fill="#ffc850"/>
    <path id="Path_73" data-name="Path 73" d="M1.439,98.528,4.906,85.589a6.351,6.351,0,0,0-.275-4.211A4.163,4.163,0,0,1,4.62,78.6C5.2,76.443,6.526,74.822,7.9,74.392c-.046-.016-.093-.03-.141-.043-1.752-.47-3.785,1.434-4.54,4.251a4.163,4.163,0,0,0,.012,2.777,6.352,6.352,0,0,1,.275,4.211L.041,98.528A1.2,1.2,0,0,0,1.9,99.812,1.2,1.2,0,0,1,1.439,98.528Z" transform="translate(3 -15.134)" fill="#f9b428"/>
    <g id="Group_53" data-name="Group 53" transform="translate(20.513 58.043)">
      <path id="Path_74" data-name="Path 74" d="M356.181,84.627l-1.828-6.822a.524.524,0,0,1,1.013-.271l1.828,6.822a.524.524,0,0,1-1.013.271Z" transform="translate(-354.335 -75.849)" fill="#f9b428"/>
      <g id="Group_52" data-name="Group 52" transform="translate(1.597)">
        <path id="Path_75" data-name="Path 75" d="M427.251,65.525,425.423,58.7a.524.524,0,0,1,1.013-.271l1.828,6.822a.524.524,0,0,1-1.013.271Z" transform="translate(-422.18 -58.043)" fill="#ffc850"/>
        <path id="Path_76" data-name="Path 76" d="M403.487,71.892l-1.828-6.821a.524.524,0,0,1,1.013-.271l1.828,6.822a.524.524,0,0,1-1.013.271Z" transform="translate(-400.029 -63.979)" fill="#ffc850"/>
        <path id="Path_77" data-name="Path 77" d="M379.724,78.259,377.9,71.437a.524.524,0,0,1,1.013-.271l1.828,6.822a.524.524,0,0,1-1.013.271Z" transform="translate(-377.878 -69.913)" fill="#ffc850"/>
        <path id="Path_78" data-name="Path 78" d="M385.451,157.19l-5.836,1.564.514,1.918a1.669,1.669,0,0,0,1.045,1.151,2.55,2.55,0,0,1,1.612,1.73l3.443,12.85a1.222,1.222,0,0,0,1.421.894,1.2,1.2,0,0,0,.9-1.482l-3.419-12.76a2.719,2.719,0,0,1,.527-2.463,1.633,1.633,0,0,0,.307-1.462Z" transform="translate(-379.497 -150.463)" fill="#ffc850"/>
      </g>
      <path id="Path_79" data-name="Path 79" d="M387.69,192.919l-3.443-12.85a2.55,2.55,0,0,0-1.612-1.73,1.669,1.669,0,0,1-1.045-1.151l-.624-2.28-1.35.362.514,1.918a1.669,1.669,0,0,0,1.045,1.151,2.55,2.55,0,0,1,1.612,1.73l3.443,12.85a1.222,1.222,0,0,0,1.421.894,1.2,1.2,0,0,0,.483-.227A1.255,1.255,0,0,1,387.69,192.919Z" transform="translate(-377.9 -166.979)" fill="#f9b428"/>
    </g>
  </g>
</svg>
