<svg xmlns="http://www.w3.org/2000/svg" width="160" height="160" viewBox="0 0 160 160">
  <g id="محجوز" transform="translate(-287 -239)">
    <g id="Ellipse_14" data-name="Ellipse 14" transform="translate(287 239)" fill="#fff" stroke="#fd0" stroke-width="3">
      <circle cx="80" cy="80" r="80" stroke="none"/>
      <circle cx="80" cy="80" r="78.5" fill="none"/>
    </g>
    <g id="Layer_2" data-name="Layer 2" transform="translate(315 289)">
      <g id="Background">
        <rect id="Rectangle_43" data-name="Rectangle 43" width="2.128" height="28.026" transform="translate(95.793 30.618)" fill="#5b0000"/>
        <rect id="Rectangle_44" data-name="Rectangle 44" width="2.128" height="28.026" transform="translate(79.019 30.618)" fill="#5b0000"/>
        <path id="Path_136" data-name="Path 136" d="M92.728,51.73s-.158.232-.216.245a2.068,2.068,0,0,1-.431-.245h-.963s-.187.245-.259.245-.331-.245-.331-.245h-.949s-.216.245-.3.245-.288-.245-.288-.245h-.963s-.2.245-.273.245-.316-.245-.316-.245h-.963s-.2.245-.288.245-.3-.245-.3-.245h-.963s-.187.245-.259.245-.331-.245-.331-.245h-.978s-.216.245-.288.245-.3-.245-.3-.245H81.8s-.173.245-.244.245-.345-.245-.345-.245h-.949s-.216.245-.288.245-.3-.245-.3-.245H78.71s-.187.245-.259.245-.331-.245-.331-.245h-.949s-.2.245-.273.245-.316-.245-.316-.245h-.963s-.2.245-.273.245-.316-.245-.316-.245h-.963s-.2.245-.288.245-.3-.245-.3-.245h-.963s-.187.245-.273.245-.316-.245-.316-.245H70.96s-.187.245-.259.245-.331-.245-.331-.245h-.949s-.23.245-.3.245-.288-.245-.288-.245h-.963s-.216.245-.3.245-.288-.245-.288-.245h-.963s-.2.245-.273.245-.273-.245-.273-.245l.187-24.05h26.4Z" transform="translate(6.804 1.505)" fill="#cee0ff"/>
        <path id="Path_137" data-name="Path 137" d="M66.15,51.18l.4-21.61.561,21.61Z" transform="translate(12.234 2.055)" fill="#b8d1ff"/>
        <path id="Path_138" data-name="Path 138" d="M67.23,50.657l.4-19.287.561,19.287Z" transform="translate(12.433 2.579)" fill="#b8d1ff"/>
        <path id="Path_139" data-name="Path 139" d="M68.31,51.18l.4-21.61.546,21.61Z" transform="translate(12.635 2.055)" fill="#b8d1ff"/>
        <path id="Path_140" data-name="Path 140" d="M69.39,51.18l.4-21.61.546,21.61Z" transform="translate(12.834 2.055)" fill="#b8d1ff"/>
        <path id="Path_141" data-name="Path 141" d="M70.46,50.657l.4-19.287.561,19.287Z" transform="translate(12.045 2.579)" fill="#b8d1ff"/>
        <path id="Path_142" data-name="Path 142" d="M71.54,51.18l.4-21.61L72.5,51.18Z" transform="translate(9.329 2.055)" fill="#b8d1ff"/>
        <path id="Path_143" data-name="Path 143" d="M72.62,50.872l.4-20.242.561,20.242Z" transform="translate(9.802 2.364)" fill="#b8d1ff"/>
        <path id="Path_144" data-name="Path 144" d="M73.7,51.18l.4-21.61.561,21.61Z" transform="translate(10.275 2.055)" fill="#b8d1ff"/>
        <path id="Path_145" data-name="Path 145" d="M74.78,51.18l.4-21.61.561,21.61Z" transform="translate(10.748 2.055)" fill="#b8d1ff"/>
        <path id="Path_146" data-name="Path 146" d="M75.86,51.18l.4-21.61.546,21.61Z" transform="translate(11.221 2.055)" fill="#b8d1ff"/>
        <path id="Path_147" data-name="Path 147" d="M76.93,50.657l.4-19.287.561,19.287Z" transform="translate(11.689 2.579)" fill="#b8d1ff"/>
        <path id="Path_148" data-name="Path 148" d="M78.01,51.18l.4-21.61.561,21.61Z" transform="translate(12.162 2.055)" fill="#b8d1ff"/>
        <path id="Path_149" data-name="Path 149" d="M79.09,51.18l.4-21.61.561,21.61Z" transform="translate(12.634 2.055)" fill="#b8d1ff"/>
        <path id="Path_150" data-name="Path 150" d="M80.17,50.764,80.573,31l.561,19.764Z" transform="translate(13.107 2.471)" fill="#b8d1ff"/>
        <path id="Path_151" data-name="Path 151" d="M81.25,50.764,81.653,31l.561,19.764Z" transform="translate(13.58 2.471)" fill="#b8d1ff"/>
        <path id="Path_152" data-name="Path 152" d="M82.33,51.18l.4-21.61.561,21.61Z" transform="translate(14.053 2.055)" fill="#b8d1ff"/>
        <path id="Path_153" data-name="Path 153" d="M83.41,50.959l.4-20.629.546,20.629Z" transform="translate(14.526 2.276)" fill="#b8d1ff"/>
        <rect id="Rectangle_45" data-name="Rectangle 45" width="27.145" height="5.306" rx="1.48" transform="translate(72.315 30.741)" fill="#b8d1ff"/>
        <path id="Path_154" data-name="Path 154" d="M88.507,0h0A1.708,1.708,0,0,0,86.58,1.371L82.123,35.335a1.622,1.622,0,0,0,1.524,1.73h0A1.708,1.708,0,0,0,85.574,35.7L90.031,1.732A1.609,1.609,0,0,0,88.507,0Z" transform="translate(13.958 0.008)" fill="#b8d1ff"/>
        <rect id="Rectangle_46" data-name="Rectangle 46" width="5.061" height="35.617" transform="translate(48.694 16.392)" fill="#7e0000"/>
        <path id="Path_155" data-name="Path 155" d="M42.986,52.432h-1.6V17.77h1.6V43.808l3.465-1.071v2.453l-2.516,1.872-.949-.529Z" transform="translate(7.304 -1.378)" fill="#5b0000"/>
        <path id="Path_156" data-name="Path 156" d="M37.452,52.583H34.26a8.014,8.014,0,0,1,2.674-5.938,8.27,8.27,0,0,1,5.578-2.1H47.1v2.866H42.513A4.967,4.967,0,0,0,39.22,48.7,5.3,5.3,0,0,0,37.452,52.583Z" transform="translate(5.431 6.411)" fill="#7e0000"/>
        <path id="Path_157" data-name="Path 157" d="M52.744,52.583h3.134a8,8,0,0,0-2.66-5.938,8.3,8.3,0,0,0-5.535-2.1H43.14v2.866h4.572A4.9,4.9,0,0,1,50.99,48.7a5.258,5.258,0,0,1,1.754,3.886Z" transform="translate(6.847 6.411)" fill="#7e0000"/>
        <path id="Path_158" data-name="Path 158" d="M42.041,45.91h0A5.737,5.737,0,0,0,38.432,47.2a7.286,7.286,0,0,0-2.415,4.66H34.292a2.841,2.841,0,0,0,0,.349h3.192a5.288,5.288,0,0,1,1.725-3.873A4.967,4.967,0,0,1,42.5,47.046h4.572v-1.1Z" transform="translate(5.44 6.809)" fill="#5b0000"/>
        <path id="Path_159" data-name="Path 159" d="M48.178,45.91H43.16v1.1h4.572A4.9,4.9,0,0,1,51.01,48.3a5.256,5.256,0,0,1,1.74,3.873h1.136A7.747,7.747,0,0,0,51.8,47.162a5.751,5.751,0,0,0-3.623-1.252Z" transform="translate(7.061 6.809)" fill="#5b0000"/>
        <path id="Path_160" data-name="Path 160" d="M37.986,51.856H34.378a.724.724,0,0,1-.748-.684h0a.713.713,0,0,1,.748-.671h3.609a.8.8,0,0,1,.538.192.639.639,0,0,1,.224.479h0a.726.726,0,0,1-.762.684Z" transform="translate(5.932 8.144)" fill="#7e0000"/>
        <path id="Path_161" data-name="Path 161" d="M53.446,51.856H49.838a.724.724,0,0,1-.748-.684h0a.713.713,0,0,1,.748-.671h3.609a.8.8,0,0,1,.538.192.639.639,0,0,1,.224.479h0a.726.726,0,0,1-.762.684Z" transform="translate(8.655 8.144)" fill="#7e0000"/>
        <rect id="Rectangle_47" data-name="Rectangle 47" width="8.583" height="0.852" transform="translate(59.574 11.087)" fill="#b84c00"/>
        <rect id="Rectangle_48" data-name="Rectangle 48" width="8.583" height="0.852" transform="translate(59.574 10.235)" fill="#7e0000"/>
        <rect id="Rectangle_49" data-name="Rectangle 49" width="8.583" height="0.852" transform="translate(59.574 9.434)" fill="#b84c00"/>
        <rect id="Rectangle_50" data-name="Rectangle 50" width="8.583" height="0.852" transform="translate(59.574 8.582)" fill="#7e0000"/>
        <rect id="Rectangle_51" data-name="Rectangle 51" width="8.583" height="0.852" transform="translate(59.574 7.782)" fill="#b84c00"/>
        <path id="Path_162" data-name="Path 162" d="M50.788,6.242c0-.142-.259-.452.891-.452s7.706-.1,7.994,0,.244.878.216,1.11a9.061,9.061,0,0,1,0,1.652c-.129.245-.158.581-.5.62S59,7.882,59,7.507s-.331-1.11-.791-.981-1.438.232-1.236.787a10.91,10.91,0,0,1,.288,1.11c.216.555-1.064.478-.935,0S56.5,7.262,56.05,7s-.7-.658-1.351-.426-.4,1.355-.834.981-.259-1.162-.546-1.188-.331,2.84-.7,2.956-.3-2.8-.474-2.853-.848.736-1.107.736S50.788,6.242,50.788,6.242Z" transform="translate(8.487 1.682)" fill="#470000"/>
        <rect id="Rectangle_52" data-name="Rectangle 52" width="8.583" height="0.852" transform="translate(59.574 11.887)" fill="#7e0000"/>
        <path id="Path_163" data-name="Path 163" d="M63.456,9.72c0,1.033-3.451,1.872-7.706,1.872S48,10.753,48,9.72Z" transform="translate(7.288 1.565)" fill="#b8d1ff"/>
        <rect id="Rectangle_53" data-name="Rectangle 53" width="8.253" height="0.271" rx="0.1" transform="translate(59.074 12.758)" fill="#b8d1ff"/>
        <path id="Path_164" data-name="Path 164" d="M57.135,5.12h-2.2a.425.425,0,0,0-.446.4h0a.425.425,0,0,0,.446.4h2.2a.425.425,0,0,0,.446-.4h0A.425.425,0,0,0,57.135,5.12Z" transform="translate(9.841 1.5)" fill="#b8d1ff"/>
        <path id="Path_165" data-name="Path 165" d="M56.49,5.036c0,.232-.288.426-.647.426s-.633-.194-.633-.426.288-.426.633-.426S56.49,4.8,56.49,5.036Z" transform="translate(10.177 1.352)" fill="#c90000"/>
        <rect id="Rectangle_54" data-name="Rectangle 54" width="2.128" height="28.026" transform="translate(8.222 58.657) rotate(180)" fill="#5b0000"/>
        <rect id="Rectangle_55" data-name="Rectangle 55" width="2.128" height="28.026" transform="translate(24.982 58.657) rotate(180)" fill="#5b0000"/>
        <path id="Path_166" data-name="Path 166" d="M3.11,51.73s.158.232.216.245a1.935,1.935,0,0,0,.417-.245h.963s.2.245.273.245.316-.245.316-.245h.963s.216.245.288.245.3-.245.3-.245h.963s.2.245.273.245.316-.245.316-.245h.963s.2.245.273.245.316-.245.316-.245h.963s.187.245.259.245.331-.245.331-.245h.963s.2.245.288.245.288-.245.288-.245h.963s.187.245.259.245.331-.245.331-.245h.963s.2.245.288.245.3-.245.3-.245h.963s.187.245.259.245.331-.245.331-.245h.963s.2.245.273.245.316-.245.316-.245H20.2s.2.245.273.245.316-.245.316-.245h.963s.2.245.288.245.3-.245.3-.245H23.3s.2.245.273.245.316-.245.316-.245h.963s.2.245.259.245.331-.245.331-.245H26.4s.216.245.3.245.288-.245.288-.245h.963s.216.245.288.245.3-.245.3-.245h.963s.187.245.259.245.288-.245.288-.245l-.187-24.05H3.484Z" transform="translate(1.374 1.505)" fill="#cee0ff"/>
        <path id="Path_167" data-name="Path 167" d="M21.773,51.18l-.4-21.61L20.81,51.18Z" transform="translate(3.856 2.055)" fill="#b8d1ff"/>
        <path id="Path_168" data-name="Path 168" d="M20.693,50.657l-.4-19.287L19.73,50.657Z" transform="translate(3.656 2.579)" fill="#b8d1ff"/>
        <path id="Path_169" data-name="Path 169" d="M19.613,51.18l-.4-21.61L18.65,51.18Z" transform="translate(3.457 2.055)" fill="#b8d1ff"/>
        <path id="Path_170" data-name="Path 170" d="M18.533,51.18l-.4-21.61L17.57,51.18Z" transform="translate(3.257 2.055)" fill="#b8d1ff"/>
        <path id="Path_171" data-name="Path 171" d="M17.449,50.657l-.4-19.287L16.5,50.657Z" transform="translate(4.046 2.579)" fill="#b8d1ff"/>
        <path id="Path_172" data-name="Path 172" d="M16.383,51.18l-.417-21.61L15.42,51.18Z" transform="translate(6.763 2.055)" fill="#b8d1ff"/>
        <path id="Path_173" data-name="Path 173" d="M15.3,50.872,14.9,30.63,14.34,50.872Z" transform="translate(6.29 2.364)" fill="#b8d1ff"/>
        <path id="Path_174" data-name="Path 174" d="M14.223,51.18l-.4-21.61L13.26,51.18Z" transform="translate(5.817 2.055)" fill="#b8d1ff"/>
        <path id="Path_175" data-name="Path 175" d="M13.143,51.18l-.4-21.61L12.18,51.18Z" transform="translate(5.345 2.055)" fill="#b8d1ff"/>
        <path id="Path_176" data-name="Path 176" d="M12.063,51.18l-.4-21.61L11.1,51.18Z" transform="translate(4.872 2.055)" fill="#b8d1ff"/>
        <path id="Path_177" data-name="Path 177" d="M10.979,50.657l-.4-19.287L10.03,50.657Z" transform="translate(4.404 2.579)" fill="#b8d1ff"/>
        <path id="Path_178" data-name="Path 178" d="M9.913,51.18l-.4-21.61L8.95,51.18Z" transform="translate(3.931 2.055)" fill="#b8d1ff"/>
        <path id="Path_179" data-name="Path 179" d="M8.833,51.18l-.4-21.61L7.87,51.18Z" transform="translate(3.458 2.055)" fill="#b8d1ff"/>
        <path id="Path_180" data-name="Path 180" d="M7.753,50.764,7.351,31,6.79,50.764Z" transform="translate(2.985 2.471)" fill="#b8d1ff"/>
        <path id="Path_181" data-name="Path 181" d="M6.673,50.764,6.271,31,5.71,50.764Z" transform="translate(2.512 2.471)" fill="#b8d1ff"/>
        <path id="Path_182" data-name="Path 182" d="M5.593,51.18l-.4-21.61L4.63,51.18Z" transform="translate(2.04 2.055)" fill="#b8d1ff"/>
        <path id="Path_183" data-name="Path 183" d="M4.513,50.959l-.4-20.629L3.55,50.959Z" transform="translate(1.567 2.276)" fill="#b8d1ff"/>
        <rect id="Rectangle_56" data-name="Rectangle 56" width="27.145" height="5.306" rx="1.48" transform="translate(31.701 36.058) rotate(180)" fill="#b8d1ff"/>
        <path id="Path_184" data-name="Path 184" d="M1.542,0h0A1.882,1.882,0,0,1,2.825.334a1.528,1.528,0,0,1,.644,1.05L7.912,35.348a1.622,1.622,0,0,1-1.524,1.73h0A1.723,1.723,0,0,1,4.461,35.71L0,1.745A1.451,1.451,0,0,1,.367.585,1.8,1.8,0,0,1,1.542,0Z" transform="translate(0.009 0.008)" fill="#b8d1ff"/>
        <path id="Path_185" data-name="Path 185" d="M21.317,11.17,18.14,17.586,54.112,47.071,90.071,17.586,86.893,11.17Z" transform="translate(-2.663 0.173)" fill="#cee0ff"/>
      </g>
    </g>
  </g>
</svg>
