<svg xmlns="http://www.w3.org/2000/svg" width="119.372" height="169.603" viewBox="0 0 119.372 169.603">
  <g id="svgexport-6_20_" data-name="svgexport-6 (20)" transform="translate(-73.627)">
    <g id="Group_8931" data-name="Group 8931" transform="translate(73.627 0)">
      <path id="Path_54964" data-name="Path 54964" d="M298.731,447.182a5.6,5.6,0,0,1-5.6,5.6h-1.346a5.6,5.6,0,0,1-5.6-5.6v-17.4h12.546Z" transform="translate(-213.679 -283.18)" fill="#d6d1d6"/>
      <g id="Group_8930" data-name="Group 8930">
        <g id="Group_8928" data-name="Group 8928" transform="translate(6.12 86.322)">
          <g id="XMLID_380_">
            <g id="Group_8927" data-name="Group 8927">
              <path id="Path_54965" data-name="Path 54965" d="M177.81,268.329a6.814,6.814,0,1,1,0,13.627h-1.416a6.815,6.815,0,1,1,0,13.631h-1.416a6.815,6.815,0,1,1,0,13.631h-3.186a6.815,6.815,0,1,1,0,13.631h-34.7a20.126,20.126,0,0,1-14.228-5.894l-1.566-1.566-29.728-.211V273.419h28.677l14.92-14.92a18.562,18.562,0,0,1,13.123-5.437h20.231v15.268h9.292Z" transform="translate(-91.567 -253.061)" fill="#ffe6c6"/>
            </g>
          </g>
        </g>
        <path id="Path_54966" data-name="Path 54966" d="M178.569,354.631a6.777,6.777,0,0,1-3.4.912h-34.7a20.119,20.119,0,0,1-14.221-5.888l-.072-.072a5.181,5.181,0,0,0-3.624-1.516l-8-.057a5.928,5.928,0,0,1-5.885-5.927v-27.29a14.865,14.865,0,0,0-.145-2.052H91.567V354.5l29.728.211,1.567,1.567a20.118,20.118,0,0,0,14.226,5.893h34.7a6.813,6.813,0,0,0,6.815-6.815,6.886,6.886,0,0,0-.04-.726Z" transform="translate(-85.447 -206.061)" fill="#f8d3aa"/>
        <path id="Path_54967" data-name="Path 54967" d="M75.958,349.166H82.02a8,8,0,0,0,8-8V303.3a8,8,0,0,0-8-8H75.958a2.331,2.331,0,0,0-2.33,2.33v49.211A2.33,2.33,0,0,0,75.958,349.166Z" transform="translate(-73.628 -194.565)" fill="#e5827f"/>
        <path id="Path_54968" data-name="Path 54968" d="M85.623,297.808a8.056,8.056,0,0,1,.13,1.432V337.1a8,8,0,0,1-8,8H73.627v3.383a2.331,2.331,0,0,0,2.33,2.33h6.062a8,8,0,0,0,8-8V304.954A8,8,0,0,0,85.623,297.808Z" transform="translate(-73.627 -196.222)" fill="#de6a66"/>
        <path id="Path_54969" data-name="Path 54969" d="M298.731,213.807V177.968H286.185v40.565Z" transform="translate(-213.679 -117.261)" fill="#d6d1d6"/>
        <path id="Path_54970" data-name="Path 54970" d="M291.73,146.7v7.535a4.462,4.462,0,0,1-4.462,4.462H268.612a4.462,4.462,0,0,1-4.462-4.462V133.712h27.58Z" transform="translate(-199.16 -88.101)" fill="#b3adb5"/>
        <path id="Path_54971" data-name="Path 54971" d="M255.89,58.6H196.444a10.87,10.87,0,0,1-10.87-10.87V10.87A10.87,10.87,0,0,1,196.444,0H255.89a10.87,10.87,0,0,1,10.87,10.87V47.732A10.87,10.87,0,0,1,255.89,58.6Z" transform="translate(-147.388 0)" fill="#a6d786"/>
        <path id="Path_54972" data-name="Path 54972" d="M209.147,48.827a10.87,10.87,0,0,1-10.87-10.87V1.094A10.941,10.941,0,0,1,198.332,0h-1.887a10.87,10.87,0,0,0-10.87,10.87V47.732a10.87,10.87,0,0,0,10.87,10.87h59.446a10.871,10.871,0,0,0,10.815-9.776Z" transform="translate(-147.388 0)" fill="#94cf6f"/>
        <g id="Group_8929" data-name="Group 8929" transform="translate(56.52 12.473)">
          <path id="Path_54973" data-name="Path 54973" d="M253.7,72.088a5.1,5.1,0,0,1-3.618-1.5L239.818,60.321a1.7,1.7,0,0,1,0-2.4l4.832-4.832a1.7,1.7,0,0,1,2.4,0l5.449,5.449a1.7,1.7,0,0,0,2.4,0l21.469-21.469a1.7,1.7,0,0,1,2.4,0l4.832,4.832a1.7,1.7,0,0,1,0,2.4L257.323,70.589A5.1,5.1,0,0,1,253.7,72.088Z" transform="translate(-239.321 -36.567)" fill="#f8f7f8"/>
        </g>
      </g>
      <path id="Path_54974" data-name="Path 54974" d="M272.425,283.032H248.818a2.558,2.558,0,0,0,0,5.117h23.607v-5.117Z" transform="translate(-187.373 -186.486)" fill="#f8d3aa"/>
    </g>
  </g>
</svg>
