<svg id="svgexport-10_62_" data-name="svgexport-10 (62)" xmlns="http://www.w3.org/2000/svg" width="23.182" height="23.982" viewBox="0 0 23.182 23.982">
  <path id="Path_22" data-name="Path 22" d="M260.4,128l1.966,6.684a.8.8,0,0,1,.033.225v11.476H256V128Z" transform="translate(-244.409 -122.404)" fill="#f8a020"/>
  <path id="Path_23" data-name="Path 23" d="M336.4,297.193a.4.4,0,0,1-.4-.4V288.4a.4.4,0,0,1,.8,0v8.394A.4.4,0,0,1,336.4,297.193Z" transform="translate(-320.412 -274.41)" fill="#c2c5c6"/>
  <path id="Path_24" data-name="Path 24" d="M37.989,146.386H24V134.992a1.6,1.6,0,0,1,.048-.388L26,128H39.988l-1.951,6.6a1.6,1.6,0,0,0-.048.388Z" transform="translate(-24 -122.404)" fill="#ffc269"/>
  <path id="Path_25" data-name="Path 25" d="M98.664,333.6h-.681a.8.8,0,0,1-.8-.856L97.524,328h1.6l.339,4.739a.8.8,0,0,1-.8.856Z" transform="translate(-93.527 -312.412)" fill="#6f6571"/>
  <path id="Path_26" data-name="Path 26" d="M187.11,364h-.632a.8.8,0,0,1-.8-.879L186,360h1.6l.312,3.118a.8.8,0,0,1-.8.879Z" transform="translate(-177.602 -342.813)" fill="#6f6571"/>
  <path id="Path_27" data-name="Path 27" d="M40.8,80c-.442,0-.8.537-.8,1.2s.358,1.2.8,1.2H55.188V80Z" transform="translate(-39.201 -76.802)" fill="#c2c5c6"/>
  <path id="Path_28" data-name="Path 28" d="M163.991,35.436a1.76,1.76,0,0,1-1.76,1.76h-.983a.161.161,0,0,0-.1.034l-2.494,1.94a1.36,1.36,0,0,1-1.8-2.036l2.461-2.461a.161.161,0,0,0-.114-.275H152l4-2.183a1.76,1.76,0,0,1,.843-.215h10.182a.161.161,0,0,1,.161.161v2.875a.161.161,0,0,1-.161.161h-2.8a.238.238,0,0,0-.239.239Z" transform="translate(-145.605 -31.201)" fill="#f5cbaa"/>
  <path id="Path_29" data-name="Path 29" d="M424,16h3.2v5.2H424Z" transform="translate(-404.015 -16)" fill="#155384"/>
  <path id="Path_30" data-name="Path 30" d="M304,458l2-2,2,2Z" transform="translate(-290.011 -434.017)" fill="#c2c5c6"/>
  <g id="Group_13" data-name="Group 13" transform="translate(2.798 12.39)">
    <path id="Path_31" data-name="Path 31" d="M83.6,264a.4.4,0,0,0-.4.4v1.2h-.8v-1.2a.4.4,0,0,0-.8,0v1.2h-.8v-1.2a.4.4,0,0,0-.8,0v1.2l1.2,1.6h1.6l1.2-1.6v-1.2A.4.4,0,0,0,83.6,264Z" transform="translate(-80 -264)" fill="#fff"/>
    <path id="Path_32" data-name="Path 32" d="M176.8,268.8v-.4l-.8-.4s.3-4,2.4-4v4.8Z" transform="translate(-171.204 -264)" fill="#fff"/>
  </g>
</svg>
